name C:\Users\u0101727\Documents\MyRepositories\upper-imu-dc\Results\main_tracking\Case_47\FLX03_linearAccelerations_groundFrame.mot
datacolumns 4
datarows 141
range 3.76000000 5.16000000
endheader 
time	radius_imu_x	radius_imu_y	radius_imu_z	
          3.76000000	          0.82051294	          9.71748643	         -0.20058258	
          3.77000000	          0.73673031	          9.69656135	         -0.16255991	
          3.78000000	          0.65503247	          9.67640595	         -0.12346932	
          3.79000000	          0.57512785	          9.65792677	         -0.08464554	
          3.80000000	          0.49678704	          9.64180746	         -0.04721020	
          3.81000000	          0.41997527	          9.62848323	         -0.01205276	
          3.82000000	          0.34491928	          9.61818072	          0.02015711	
          3.83000000	          0.27210097	          9.61099281	          0.04893831	
          3.84000000	          0.20219478	          9.60693842	          0.07396504	
          3.85000000	          0.13597643	          9.60597023	          0.09505301	
          3.86000000	          0.07422015	          9.60793429	          0.11218435	
          3.87000000	          0.01759743	          9.61251350	          0.12557083	
          3.88000000	         -0.03339718	          9.61919282	          0.13571918	
          3.89000000	         -0.07846499	          9.62727711	          0.14343791	
          3.90000000	         -0.11746237	          9.63596793	          0.14974520	
          3.91000000	         -0.15032411	          9.64448037	          0.15569518	
          3.92000000	         -0.17699615	          9.65214664	          0.16217588	
          3.93000000	         -0.19740521	          9.65848442	          0.16975759	
          3.94000000	         -0.21146730	          9.66330718	          0.17868838	
          3.95000000	         -0.21910286	          9.66649946	          0.18885267	
          3.96000000	         -0.22018059	          9.66821473	          0.19998024	
          3.97000000	         -0.21442956	          9.66848089	          0.21150950	
          3.98000000	         -0.20134941	          9.66750318	          0.22274077	
          3.99000000	         -0.18018943	          9.66539038	          0.23263738	
          4.00000000	         -0.14997919	          9.66240081	          0.23992352	
          4.01000000	         -0.10967462	          9.65880838	          0.24311961	
          4.02000000	         -0.05838183	          9.65486004	          0.24074488	
          4.03000000	          0.00439526	          9.65068655	          0.23156715	
          4.04000000	          0.07855625	          9.64619498	          0.21482785	
          4.05000000	          0.16331630	          9.64102752	          0.19040575	
          4.06000000	          0.25723406	          9.63460377	          0.15888322	
          4.07000000	          0.35831490	          9.62622360	          0.12150197	
          4.08000000	          0.46413432	          9.61519787	          0.08002022	
          4.09000000	          0.57193878	          9.60096025	          0.03649097	
          4.10000000	          0.67872551	          9.58314627	         -0.00699224	
          4.11000000	          0.78133133	          9.56162793	         -0.04853750	
          4.12000000	          0.87655761	          9.53651976	         -0.08664310	
          4.13000000	          0.96132726	          9.50818100	         -0.12029895	
          4.14000000	          1.03283847	          9.47720923	         -0.14898796	
          4.15000000	          1.08868264	          9.44440384	         -0.17259950	
          4.16000000	          1.12692680	          9.41070317	         -0.19128894	
          4.17000000	          1.14619307	          9.37712508	         -0.20533081	
          4.18000000	          1.14575106	          9.34472361	         -0.21501543	
          4.19000000	          1.12560552	          9.31455712	         -0.22061047	
          4.20000000	          1.08654739	          9.28765557	         -0.22237623	
          4.21000000	          1.03013396	          9.26498210	         -0.22059939	
          4.22000000	          0.95857870	          9.24738060	         -0.21560828	
          4.23000000	          0.87455423	          9.23551028	         -0.20774761	
          4.24000000	          0.78095092	          9.22978130	         -0.19732650	
          4.25000000	          0.68066906	          9.23032758	         -0.18457466	
          4.26000000	          0.57650044	          9.23702380	         -0.16963418	
          4.27000000	          0.47108815	          9.24953056	         -0.15256506	
          4.28000000	          0.36689406	          9.26731440	         -0.13333737	
          4.29000000	          0.26612811	          9.28964052	         -0.11180382	
          4.30000000	          0.17066134	          9.31556414	         -0.08769807	
          4.31000000	          0.08199936	          9.34396785	         -0.06070272	
          4.32000000	          0.00135492	          9.37364951	         -0.03059124	
          4.33000000	         -0.07023526	          9.40338290	          0.00257855	
          4.34000000	         -0.13180300	          9.43199298	          0.03832305	
          4.35000000	         -0.18243738	          9.45836380	          0.07565236	
          4.36000000	         -0.22130845	          9.48148144	          0.11314902	
          4.37000000	         -0.24775417	          9.50043201	          0.14905290	
          4.38000000	         -0.26131351	          9.51442145	          0.18151212	
          4.39000000	         -0.26181401	          9.52275144	          0.20876367	
          4.40000000	         -0.24944063	          9.52487277	          0.22935217	
          4.41000000	         -0.22487075	          9.52041487	          0.24228125	
          4.42000000	         -0.18937251	          9.50927865	          0.24713085	
          4.43000000	         -0.14485365	          9.49168169	          0.24408019	
          4.44000000	         -0.09380047	          9.46817917	          0.23385128	
          4.45000000	         -0.03910402	          9.43964493	          0.21757226	
          4.46000000	          0.01617974	          9.40722027	          0.19659228	
          4.47000000	          0.06910373	          9.37224152	          0.17230338	
          4.48000000	          0.11709789	          9.33612911	          0.14600695	
          4.49000000	          0.15820592	          9.30025057	          0.11883877	
          4.50000000	          0.19125309	          9.26579177	          0.09173607	
          4.51000000	          0.21589486	          9.23366309	          0.06542748	
          4.52000000	          0.23250505	          9.20445585	          0.04043919	
          4.53000000	          0.24193116	          9.17845270	          0.01712609	
          4.54000000	          0.24521773	          9.15568369	         -0.00426684	
          4.55000000	          0.24339810	          9.13599846	         -0.02353250	
          4.56000000	          0.23740106	          9.11912062	         -0.04044952	
          4.57000000	          0.22804582	          9.10468116	         -0.05477120	
          4.58000000	          0.21605383	          9.09225830	         -0.06625053	
          4.59000000	          0.20201760	          9.08144468	         -0.07467463	
          4.60000000	          0.18632758	          9.07192820	         -0.07987460	
          4.61000000	          0.16910492	          9.06354127	         -0.08169520	
          4.62000000	          0.15018973	          9.05624960	         -0.07994033	
          4.63000000	          0.12919128	          9.05009308	         -0.07433640	
          4.64000000	          0.10556519	          9.04512675	         -0.06455077	
          4.65000000	          0.07867847	          9.04140932	         -0.05027123	
          4.66000000	          0.04785750	          9.03905503	         -0.03131884	
          4.67000000	          0.01244094	          9.03832377	         -0.00775200	
          4.68000000	         -0.02814812	          9.03970427	          0.02007315	
          4.69000000	         -0.07431982	          9.04395243	          0.05149912	
          4.70000000	         -0.12624065	          9.05206738	          0.08561257	
          4.71000000	         -0.18376525	          9.06520093	          0.12131863	
          4.72000000	         -0.24637556	          9.08450126	          0.15741862	
          4.73000000	         -0.31313558	          9.11090960	          0.19266998	
          4.74000000	         -0.38268522	          9.14496615	          0.22582337	
          4.75000000	         -0.45331058	          9.18668213	          0.25564252	
          4.76000000	         -0.52308729	          9.23551880	          0.28093423	
          4.77000000	         -0.59008859	          9.29047791	          0.30060967	
          4.78000000	         -0.65257693	          9.35025481	          0.31378161	
          4.79000000	         -0.70913678	          9.41340285	          0.31986343	
          4.80000000	         -0.75870602	          9.47846180	          0.31863428	
          4.81000000	         -0.80051918	          9.54402613	          0.31023833	
          4.82000000	         -0.83401953	          9.60876733	          0.29511683	
          4.83000000	         -0.85878634	          9.67143025	          0.27389907	
          4.84000000	         -0.87449953	          9.73081278	          0.24728891	
          4.85000000	         -0.88093950	          9.78573927	          0.21599018	
          4.86000000	         -0.87801545	          9.83504956	          0.18069937	
          4.87000000	         -0.86581838	          9.87762340	          0.14215259	
          4.88000000	         -0.84468910	          9.91244953	          0.10118262	
          4.89000000	         -0.81529108	          9.93873591	          0.05874667	
          4.90000000	         -0.77867271	          9.95604640	          0.01591918	
          4.91000000	         -0.73628860	          9.96442759	         -0.02613120	
          4.92000000	         -0.68994596	          9.96446607	         -0.06616813	
          4.93000000	         -0.64167447	          9.95724461	         -0.10292024	
          4.94000000	         -0.59355503	          9.94421318	         -0.13512573	
          4.95000000	         -0.54755092	          9.92701536	         -0.16158256	
          4.96000000	         -0.50536560	          9.90728964	         -0.18119363	
          4.97000000	         -0.46833054	          9.88645058	         -0.19299954	
          4.98000000	         -0.43731579	          9.86546534	         -0.19620543	
          4.99000000	         -0.41267359	          9.84467403	         -0.19020656	
          5.00000000	         -0.39424361	          9.82372455	         -0.17462888	
          5.01000000	         -0.38144962	          9.80165794	         -0.14937616	
          5.02000000	         -0.37347974	          9.77713739	         -0.11468201	
          5.03000000	         -0.36948978	          9.74874458	         -0.07113931	
          5.04000000	         -0.36875033	          9.71523539	         -0.01968847	
          5.05000000	         -0.37070216	          9.67568343	          0.03844075	
          5.06000000	         -0.37493844	          9.62952252	          0.10182132	
          5.07000000	         -0.38115260	          9.57654758	          0.16892352	
          5.08000000	         -0.38907465	          9.51692079	          0.23818441	
          5.09000000	         -0.39841175	          9.45118892	          0.30804302	
          5.10000000	         -0.40881644	          9.38028972	          0.37694148	
          5.11000000	         -0.41988395	          9.30552902	          0.44330441	
          5.12000000	         -0.43118629	          9.22851597	          0.50550936	
          5.13000000	         -0.44232356	          9.15106034	          0.56188404	
          5.14000000	         -0.45299068	          9.07503654	          0.61076175	
          5.15000000	         -0.46303921	          9.00224079	          0.65061367	
          5.16000000	         -0.47252165	          8.93426380	          0.68022910	
